<?xml version="1.0" encoding="UTF-8" standalone="no"?>
<svg
   version="1.0"
   width="1024pt"
   height="1024pt"
   viewBox="0 0 1024 1024"
   preserveAspectRatio="xMidYMid"
   id="svg14"
   xmlns:xlink="http://www.w3.org/1999/xlink"
   xmlns="http://www.w3.org/2000/svg"
   xmlns:svg="http://www.w3.org/2000/svg">
  <defs
     id="defs14">
    <linearGradient
       id="linearGradient14">
      <stop
         style="stop-color:#ffcc3b;stop-opacity:1;"
         offset="0.1638587"
         id="stop14" />
      <stop
         style="stop-color:#b80808;stop-opacity:1;"
         offset="1"
         id="stop15" />
    </linearGradient>
    <linearGradient
       xlink:href="#linearGradient14"
       id="linearGradient15"
       x1="0"
       y1="0"
       x2="1024"
       y2="1024"
       gradientUnits="userSpaceOnUse" />
  </defs>
  <rect
     style="fill:url(#linearGradient15);fill-opacity:1;stroke-width:0.75"
     id="rect14"
     width="1024"
     height="1024"
     x="0"
     y="0"
     rx="186.44743"
     ry="210.94643" />
  <g
     transform="matrix(0.11869224,0,0,-0.1178759,-95.741397,1115.5021)"
     fill="#000000"
     stroke="none"
     id="g14"
     style="fill:#ffffff;fill-opacity:1">
    <path
       d="M 4840,8720 C 4178,8662 3574,8442 3047,8068 2568,7727 2177,7273 1916,6752 1719,6359 1606,5978 1548,5510 c -20,-162 -17,-641 5,-815 90,-695 328,-1278 743,-1815 111,-143 422,-458 569,-574 342,-271 735,-484 1145,-619 395,-131 759,-184 1195,-174 558,12 1002,121 1500,367 284,140 485,270 719,466 1058,883 1514,2304 1175,3655 -163,650 -479,1208 -954,1685 -580,582 -1295,925 -2125,1019 -166,19 -538,27 -680,15 z m 612,-435 c 603,-58 1154,-278 1618,-646 122,-97 352,-319 450,-434 329,-389 569,-864 678,-1340 113,-494 117,-963 10,-1450 -100,-460 -305,-894 -609,-1285 -94,-121 -315,-348 -442,-453 -464,-384 -988,-623 -1577,-718 -159,-26 -548,-37 -730,-20 -745,68 -1447,398 -1980,931 -160,159 -263,286 -393,482 -117,176 -183,294 -257,463 -363,822 -355,1820 21,2647 414,908 1233,1567 2205,1772 101,21 264,45 404,59 99,10 464,5 602,-8 z"
       id="path1"
       style="fill:#ffffff;fill-opacity:1" />
    <path
       d="m 4982,7938 c -9,-9 -12,-78 -12,-249 0,-131 3,-244 6,-253 10,-26 80,-38 176,-31 74,6 91,11 103,28 23,32 22,463 -1,495 -14,21 -22,22 -138,22 -81,0 -126,-4 -134,-12 z"
       id="path2"
       style="fill:#ffffff;fill-opacity:1" />
    <path
       d="m 3672,7545 c -93,-55 -112,-72 -112,-103 0,-24 215,-367 246,-393 25,-21 58,-12 139,36 87,52 105,69 105,97 0,19 -205,344 -243,386 -29,31 -51,27 -135,-23 z"
       id="path3"
       style="fill:#ffffff;fill-opacity:1" />
    <path
       d="m 6428,7562 c -58,-69 -238,-360 -238,-385 0,-29 9,-37 114,-99 76,-45 109,-50 136,-22 29,31 230,346 236,371 4,13 0,33 -9,46 -19,29 -163,117 -192,117 -13,0 -34,-12 -47,-28 z"
       id="path4"
       style="fill:#ffffff;fill-opacity:1" />
    <path
       d="m 2717,6588 c -8,-13 -35,-57 -60,-99 -26,-42 -47,-86 -47,-97 0,-26 6,-31 219,-154 149,-86 178,-99 199,-92 16,6 43,38 73,87 56,89 65,117 50,145 -14,27 -363,232 -395,232 -16,0 -31,-9 -39,-22 z"
       id="path5"
       style="fill:#ffffff;fill-opacity:1" />
    <path
       d="m 7435,6596 c -11,-7 -86,-53 -168,-101 -81,-48 -154,-94 -162,-102 -26,-26 -17,-67 36,-154 28,-46 56,-87 63,-91 26,-17 60,-3 231,100 136,81 182,113 189,133 8,23 0,40 -51,125 -52,87 -63,99 -89,101 -16,1 -38,-4 -49,-11 z"
       id="path6"
       style="fill:#ffffff;fill-opacity:1" />
    <path
       d="m 4928,6380 c -189,-47 -358,-168 -468,-337 -174,-265 -174,-612 0,-876 50,-76 167,-195 236,-241 l 41,-26 -33,-148 c -127,-564 -224,-1012 -224,-1030 0,-11 11,-34 24,-49 l 24,-28 571,-3 c 484,-2 576,0 606,12 62,26 63,41 16,263 -62,289 -212,967 -217,974 -2,3 21,23 51,43 76,53 195,181 243,262 23,38 56,112 73,164 31,89 33,103 33,235 0,161 -13,223 -75,352 -105,219 -320,388 -557,438 -94,20 -250,18 -344,-5 z"
       id="path7"
       style="fill:#ffffff;fill-opacity:1" />
    <path
       d="m 2320,5251 c -5,-11 -10,-71 -10,-134 0,-98 3,-116 18,-130 16,-15 48,-17 235,-17 183,0 218,2 231,16 13,12 16,39 16,127 0,168 18,157 -255,157 -212,0 -225,-1 -235,-19 z"
       id="path8"
       style="fill:#ffffff;fill-opacity:1" />
    <path
       d="m 7450,5250 c -17,-17 -20,-33 -20,-125 0,-58 5,-115 12,-130 l 11,-25 h 223 c 271,0 254,-10 254,150 0,159 15,150 -246,150 -201,0 -215,-1 -234,-20 z"
       id="path9"
       style="fill:#ffffff;fill-opacity:1" />
    <path
       d="m 2819,4003 c -91,-54 -173,-104 -183,-112 -28,-23 -18,-71 33,-156 53,-89 85,-114 123,-94 84,43 336,195 351,212 9,10 17,27 17,37 0,10 -26,60 -59,111 -50,80 -63,94 -87,97 -22,2 -71,-22 -195,-95 z"
       id="path10"
       style="fill:#ffffff;fill-opacity:1" />
    <path
       d="m 7198,4090 c -28,-17 -108,-166 -108,-203 0,-33 3,-35 185,-141 135,-78 193,-106 212,-104 22,2 37,20 81,92 60,98 66,127 31,160 -40,38 -335,206 -360,206 -13,0 -31,-5 -41,-10 z"
       id="path11"
       style="fill:#ffffff;fill-opacity:1" />
    <path
       d="m 3799,3188 c -42,-45 -239,-361 -239,-385 0,-31 23,-52 113,-102 117,-65 110,-69 255,153 76,118 122,198 120,210 -2,14 -34,41 -90,78 -108,71 -130,78 -159,46 z"
       id="path12"
       style="fill:#ffffff;fill-opacity:1" />
    <path
       d="m 6291,3151 c -89,-53 -101,-64 -101,-97 0,-12 54,-105 121,-208 142,-218 137,-215 255,-145 82,50 114,77 114,99 0,13 -205,343 -240,385 -22,26 -62,17 -149,-34 z"
       id="path13"
       style="fill:#ffffff;fill-opacity:1" />
    <path
       d="m 4982,2818 c -9,-9 -12,-80 -12,-260 0,-234 1,-248 19,-258 11,-5 71,-10 134,-10 98,0 116,3 130,18 15,16 17,49 17,251 0,141 -4,240 -10,252 -10,17 -22,19 -138,19 -86,0 -132,-4 -140,-12 z"
       id="path14"
       style="fill:#ffffff;fill-opacity:1" />
  </g>
</svg>
